# xmcd
#
# Track frame offsets: 
#        150
#        18163
#        39316
#        55512
#        70924
#        83176
#        107762
#        127117
#        138518
#        153869
#        180064
#        199107
#        224136
#        252802
#        261887
#
# Disc length: 3794 seconds
#
# Revision: 0
# Processed by: cddbd v1.5.2PL0 Copyright (c) Steve Scherf et al.
# Submitted via: ExactAudioCopy v0.95a4
#
DISCID=ca0ed00f
DTITLE=Possession - Incarnation. The Songs of Robert Johnson
DYEAR=2008
DGENRE=blues
TTITLE0=Walking Blues
TTITLE1=Stones In My Passway
TTITLE2=Terraplane Blues
TTITLE3=Travelling Riverside Blues
TTITLE4=If I Had A Possession Over Judgement Day
TTITLE5=Sweet Home Chicago
TTITLE6=Mean Black Spider
TTITLE7=32-20 Blues
TTITLE8=Phonograph Blues
TTITLE9=From Four Until Late
TTITLE10=Little Boy Blue
TTITLE11=When You Got A Good Friend
TTITLE12=Me And The Devil Blues
TTITLE13=Crossroads Blues
TTITLE14=Love In Vain
EXTD=
EXTT0=
EXTT1=
EXTT2=
EXTT3=
EXTT4=
EXTT5=
EXTT6=
EXTT7=
EXTT8=
EXTT9=
EXTT10=
EXTT11=
EXTT12=
EXTT13=
EXTT14=
PLAYORDER=
